<?xml version="1.0" encoding="UTF-8" standalone="no"?>
<!DOCTYPE svg PUBLIC "-//W3C//DTD SVG 1.1//EN"
 "http://www.w3.org/Graphics/SVG/1.1/DTD/svg11.dtd">
<!-- Generated by graphviz version 2.34.0 (20130907.0228)
 -->
<!-- Title: %3 Pages: 1 -->
<svg width="1302pt" height="416pt"
 viewBox="0.00 0.00 1302.00 416.00" xmlns="http://www.w3.org/2000/svg" xmlns:xlink="http://www.w3.org/1999/xlink">
<g id="graph0" class="graph" transform="scale(1 1) rotate(0) translate(4 412)">
<title>%3</title>
<polygon fill="white" stroke="white" points="-4,4 -4,-412 1298,-412 1298,4 -4,4"/>
<!-- org_liveSense_framework_wro4j -->
<g id="node1" class="node"><title>org_liveSense_framework_wro4j</title>
<polygon fill="yellow" stroke="black" points="489,-371 489,-407 671,-407 671,-371 489,-371"/>
<text text-anchor="middle" x="580" y="-396.1" font-family="Arial" font-size="8.00">liveSense :: Framework :: WRO4J</text>
<polyline fill="none" stroke="black" points="489,-389 671,-389 "/>
<text text-anchor="middle" x="580" y="-378.1" font-family="Arial" font-size="8.00">org.liveSense.framework.wro4j(2&#45;SNAPSHOT)</text>
</g>
<!-- org_apache_servicemix_bundles_junit -->
<g id="node2" class="node"><title>org_apache_servicemix_bundles_junit</title>
<polygon fill="green" stroke="black" points="-0.5,-297 -0.5,-333 172.5,-333 172.5,-297 -0.5,-297"/>
<text text-anchor="middle" x="86" y="-322.1" font-family="Arial" font-size="8.00">Apache ServiceMix :: Bundles :: junit</text>
<polyline fill="none" stroke="black" points="-0.5,-315 172.5,-315 "/>
<text text-anchor="middle" x="86" y="-304.1" font-family="Arial" font-size="8.00">org.apache.servicemix.bundles.junit(3.8.2.4)</text>
</g>
<!-- org_liveSense_framework_wro4j&#45;&gt;org_apache_servicemix_bundles_junit -->
<g id="edge1" class="edge"><title>org_liveSense_framework_wro4j&#45;&gt;org_apache_servicemix_bundles_junit</title>
<path fill="none" stroke="yellow" d="M488.915,-376.97C410.487,-367.166 294.042,-351.88 182.643,-334.061"/>
<polygon fill="yellow" stroke="yellow" points="183.001,-330.573 172.572,-332.44 181.889,-337.484 183.001,-330.573"/>
</g>
<!-- org_apache_commons_io -->
<g id="node3" class="node"><title>org_apache_commons_io</title>
<polygon fill="green" stroke="black" points="191,-297 191,-333 311,-333 311,-297 191,-297"/>
<text text-anchor="middle" x="251" y="-322.1" font-family="Arial" font-size="8.00">Apache Commons IO Bundle</text>
<polyline fill="none" stroke="black" points="191,-315 311,-315 "/>
<text text-anchor="middle" x="251" y="-304.1" font-family="Arial" font-size="8.00">org.apache.commons.io(1.4)</text>
</g>
<!-- org_liveSense_framework_wro4j&#45;&gt;org_apache_commons_io -->
<g id="edge2" class="edge"><title>org_liveSense_framework_wro4j&#45;&gt;org_apache_commons_io</title>
<path fill="none" stroke="yellow" d="M493.448,-370.993C445.476,-361.321 384.553,-348.635 321.08,-333.965"/>
<polygon fill="yellow" stroke="yellow" points="321.818,-330.543 311.286,-331.69 320.235,-337.362 321.818,-330.543"/>
</g>
<!-- org_apache_geronimo_specs_geronimo_servlet_3_0_spec -->
<g id="node4" class="node"><title>org_apache_geronimo_specs_geronimo_servlet_3_0_spec</title>
<polygon fill="green" stroke="black" points="680,-297 680,-333 910,-333 910,-297 680,-297"/>
<text text-anchor="middle" x="795" y="-322.1" font-family="Arial" font-size="8.00">Servlet 3.0</text>
<polyline fill="none" stroke="black" points="680,-315 910,-315 "/>
<text text-anchor="middle" x="795" y="-304.1" font-family="Arial" font-size="8.00">org.apache.geronimo.specs.geronimo&#45;servlet_3.0_spec(1.0)</text>
</g>
<!-- org_liveSense_framework_wro4j&#45;&gt;org_apache_geronimo_specs_geronimo_servlet_3_0_spec -->
<g id="edge3" class="edge"><title>org_liveSense_framework_wro4j&#45;&gt;org_apache_geronimo_specs_geronimo_servlet_3_0_spec</title>
<path fill="none" stroke="yellow" d="M630.952,-370.937C661.899,-360.573 701.587,-347.283 734.174,-336.37"/>
<polygon fill="yellow" stroke="yellow" points="735.671,-339.56 744.042,-333.065 733.448,-332.922 735.671,-339.56"/>
</g>
<!-- org_apache_commons_beanutils -->
<g id="node5" class="node"><title>org_apache_commons_beanutils</title>
<polygon fill="green" stroke="black" points="329.5,-297 329.5,-333 480.5,-333 480.5,-297 329.5,-297"/>
<text text-anchor="middle" x="405" y="-322.1" font-family="Arial" font-size="8.00">Commons BeanUtils</text>
<polyline fill="none" stroke="black" points="329.5,-315 480.5,-315 "/>
<text text-anchor="middle" x="405" y="-304.1" font-family="Arial" font-size="8.00">org.apache.commons.beanutils(1.8.3)</text>
</g>
<!-- org_liveSense_framework_wro4j&#45;&gt;org_apache_commons_beanutils -->
<g id="edge4" class="edge"><title>org_liveSense_framework_wro4j&#45;&gt;org_apache_commons_beanutils</title>
<path fill="none" stroke="yellow" d="M538.527,-370.937C513.772,-360.752 482.146,-347.74 455.887,-336.936"/>
<polygon fill="yellow" stroke="yellow" points="457.057,-333.633 446.478,-333.065 454.394,-340.107 457.057,-333.633"/>
</g>
<!-- org_apache_servicemix_bundles_antlr -->
<g id="node6" class="node"><title>org_apache_servicemix_bundles_antlr</title>
<polygon fill="green" stroke="black" points="1120,-297 1120,-333 1294,-333 1294,-297 1120,-297"/>
<text text-anchor="middle" x="1207" y="-322.1" font-family="Arial" font-size="8.00">Apache ServiceMix :: Bundles :: antlr</text>
<polyline fill="none" stroke="black" points="1120,-315 1294,-315 "/>
<text text-anchor="middle" x="1207" y="-304.1" font-family="Arial" font-size="8.00">org.apache.servicemix.bundles.antlr(2.7.7.4)</text>
</g>
<!-- org_liveSense_framework_wro4j&#45;&gt;org_apache_servicemix_bundles_antlr -->
<g id="edge5" class="edge"><title>org_liveSense_framework_wro4j&#45;&gt;org_apache_servicemix_bundles_antlr</title>
<path fill="none" stroke="yellow" d="M671.247,-380.99C774.907,-372.508 949.315,-356.669 1109.75,-333.964"/>
<polygon fill="yellow" stroke="yellow" points="1110.4,-337.406 1119.81,-332.529 1109.41,-330.477 1110.4,-337.406"/>
</g>
<!-- org_ops4j_pax_logging_pax_logging_api -->
<g id="node7" class="node"><title>org_ops4j_pax_logging_pax_logging_api</title>
<polygon fill="green" stroke="black" points="928.5,-297 928.5,-333 1101.5,-333 1101.5,-297 928.5,-297"/>
<text text-anchor="middle" x="1015" y="-322.1" font-family="Arial" font-size="8.00">OPS4J Pax Logging &#45; API</text>
<polyline fill="none" stroke="black" points="928.5,-315 1101.5,-315 "/>
<text text-anchor="middle" x="1015" y="-304.1" font-family="Arial" font-size="8.00">org.ops4j.pax.logging.pax&#45;logging&#45;api(1.7.0)</text>
</g>
<!-- org_liveSense_framework_wro4j&#45;&gt;org_ops4j_pax_logging_pax_logging_api -->
<g id="edge6" class="edge"><title>org_liveSense_framework_wro4j&#45;&gt;org_ops4j_pax_logging_pax_logging_api</title>
<path fill="none" stroke="yellow" d="M671.118,-374.178C736.96,-364.028 828.293,-349.618 918.298,-334.098"/>
<polygon fill="yellow" stroke="yellow" points="919.156,-337.502 928.413,-332.348 917.962,-330.604 919.156,-337.502"/>
</g>
<!-- org_ops4j_pax_web_pax_web_jsp -->
<g id="node8" class="node"><title>org_ops4j_pax_web_pax_web_jsp</title>
<polygon fill="green" stroke="black" points="498.5,-297 498.5,-333 661.5,-333 661.5,-297 498.5,-297"/>
<text text-anchor="middle" x="580" y="-322.1" font-family="Arial" font-size="8.00">OPS4J Pax Web &#45; Jsp Support</text>
<polyline fill="none" stroke="black" points="498.5,-315 661.5,-315 "/>
<text text-anchor="middle" x="580" y="-304.1" font-family="Arial" font-size="8.00">org.ops4j.pax.web.pax&#45;web&#45;jsp(3.0.0.M3)</text>
</g>
<!-- org_liveSense_framework_wro4j&#45;&gt;org_ops4j_pax_web_pax_web_jsp -->
<g id="edge7" class="edge"><title>org_liveSense_framework_wro4j&#45;&gt;org_ops4j_pax_web_pax_web_jsp</title>
<path fill="none" stroke="yellow" d="M580,-370.937C580,-362.807 580,-352.876 580,-343.705"/>
<polygon fill="yellow" stroke="yellow" points="583.5,-343.441 580,-333.441 576.5,-343.441 583.5,-343.441"/>
</g>
<!-- org_apache_commons_beanutils&#45;&gt;org_ops4j_pax_logging_pax_logging_api -->
<g id="edge8" class="edge"><title>org_apache_commons_beanutils&#45;&gt;org_ops4j_pax_logging_pax_logging_api</title>
<path fill="none" stroke="green" d="M441.549,-333.083C458.568,-340.528 479.357,-348.273 499,-352 588.733,-369.024 819.974,-367.398 910,-352 928.155,-348.895 947.344,-342.974 964.281,-336.765"/>
<polygon fill="green" stroke="green" points="965.857,-339.91 973.968,-333.094 963.376,-333.365 965.857,-339.91"/>
</g>
<!-- org_apache_commons_collections -->
<g id="node9" class="node"><title>org_apache_commons_collections</title>
<polygon fill="#3182bd" stroke="black" points="327,-223 327,-259 483,-259 483,-223 327,-223"/>
<text text-anchor="middle" x="405" y="-248.1" font-family="Arial" font-size="8.00">Commons Collections</text>
<polyline fill="none" stroke="black" points="327,-241 483,-241 "/>
<text text-anchor="middle" x="405" y="-230.1" font-family="Arial" font-size="8.00">org.apache.commons.collections(3.2.1)</text>
</g>
<!-- org_apache_commons_beanutils&#45;&gt;org_apache_commons_collections -->
<g id="edge9" class="edge"><title>org_apache_commons_beanutils&#45;&gt;org_apache_commons_collections</title>
<path fill="none" stroke="green" d="M405,-296.937C405,-288.807 405,-278.876 405,-269.705"/>
<polygon fill="green" stroke="green" points="408.5,-269.441 405,-259.441 401.5,-269.441 408.5,-269.441"/>
</g>
<!-- org_apache_felix_eventadmin -->
<g id="node12" class="node"><title>org_apache_felix_eventadmin</title>
<polygon fill="#9ecae1" stroke="black" points="983,-75 983,-111 1123,-111 1123,-75 983,-75"/>
<text text-anchor="middle" x="1053" y="-100.1" font-family="Arial" font-size="8.00">Apache Felix EventAdmin</text>
<polyline fill="none" stroke="black" points="983,-93 1123,-93 "/>
<text text-anchor="middle" x="1053" y="-82.1" font-family="Arial" font-size="8.00">org.apache.felix.eventadmin(1.3.2)</text>
</g>
<!-- org_ops4j_pax_logging_pax_logging_api&#45;&gt;org_apache_felix_eventadmin -->
<g id="edge14" class="edge"><title>org_ops4j_pax_logging_pax_logging_api&#45;&gt;org_apache_felix_eventadmin</title>
<path fill="none" stroke="#3182bd" d="M1014.14,-296.737C1017.13,-258.583 1032.72,-166.845 1043.72,-121.011"/>
<polygon fill="#3182bd" stroke="#3182bd" points="1047.14,-121.735 1046.2,-111.183 1040.36,-120.023 1047.14,-121.735"/>
</g>
<!-- org_ops4j_pax_web_pax_web_jsp&#45;&gt;org_apache_geronimo_specs_geronimo_servlet_3_0_spec -->
<g id="edge11" class="edge"><title>org_ops4j_pax_web_pax_web_jsp&#45;&gt;org_apache_geronimo_specs_geronimo_servlet_3_0_spec</title>
<path fill="none" stroke="green" d="M661.885,-315C664.501,-315 667.117,-315 669.733,-315"/>
<polygon fill="green" stroke="green" points="669.824,-318.5 679.824,-315 669.824,-311.5 669.824,-318.5"/>
</g>
<!-- org_ops4j_pax_web_pax_web_jsp&#45;&gt;org_ops4j_pax_logging_pax_logging_api -->
<g id="edge10" class="edge"><title>org_ops4j_pax_web_pax_web_jsp&#45;&gt;org_ops4j_pax_logging_pax_logging_api</title>
<path fill="none" stroke="green" d="M618.997,-333.09C637.125,-340.536 659.227,-348.28 680,-352 780.622,-370.018 809.241,-369.233 910,-352 928.155,-348.895 947.344,-342.974 964.281,-336.765"/>
<polygon fill="green" stroke="green" points="965.857,-339.91 973.968,-333.094 963.376,-333.365 965.857,-339.91"/>
</g>
<!-- org_ops4j_pax_web_pax_web_api -->
<g id="node10" class="node"><title>org_ops4j_pax_web_pax_web_api</title>
<polygon fill="#3182bd" stroke="black" points="655,-223 655,-259 819,-259 819,-223 655,-223"/>
<text text-anchor="middle" x="737" y="-248.1" font-family="Arial" font-size="8.00">OPS4J Pax Web &#45; API</text>
<polyline fill="none" stroke="black" points="655,-241 819,-241 "/>
<text text-anchor="middle" x="737" y="-230.1" font-family="Arial" font-size="8.00">org.ops4j.pax.web.pax&#45;web&#45;api(3.0.0.M3)</text>
</g>
<!-- org_ops4j_pax_web_pax_web_jsp&#45;&gt;org_ops4j_pax_web_pax_web_api -->
<g id="edge12" class="edge"><title>org_ops4j_pax_web_pax_web_jsp&#45;&gt;org_ops4j_pax_web_pax_web_api</title>
<path fill="none" stroke="green" d="M617.207,-296.937C639.124,-286.886 667.044,-274.082 690.415,-263.364"/>
<polygon fill="green" stroke="green" points="692.158,-266.415 699.789,-259.065 689.24,-260.052 692.158,-266.415"/>
</g>
<!-- org_ops4j_pax_web_pax_web_runtime -->
<g id="node11" class="node"><title>org_ops4j_pax_web_pax_web_runtime</title>
<polygon fill="#3182bd" stroke="black" points="639,-149 639,-185 819,-185 819,-149 639,-149"/>
<text text-anchor="middle" x="729" y="-174.1" font-family="Arial" font-size="8.00">OPS4J Pax Web &#45; Runtime</text>
<polyline fill="none" stroke="black" points="639,-167 819,-167 "/>
<text text-anchor="middle" x="729" y="-156.1" font-family="Arial" font-size="8.00">org.ops4j.pax.web.pax&#45;web&#45;runtime(3.0.0.M3)</text>
</g>
<!-- org_ops4j_pax_web_pax_web_jsp&#45;&gt;org_ops4j_pax_web_pax_web_runtime -->
<g id="edge13" class="edge"><title>org_ops4j_pax_web_pax_web_jsp&#45;&gt;org_ops4j_pax_web_pax_web_runtime</title>
<path fill="none" stroke="green" d="M580.557,-296.983C586.785,-277.077 603.57,-244.044 626,-222 639.138,-209.088 655.97,-198.156 672.255,-189.577"/>
<polygon fill="green" stroke="green" points="673.866,-192.685 681.218,-185.056 670.713,-186.435 673.866,-192.685"/>
</g>
<!-- org_ops4j_pax_web_pax_web_api&#45;&gt;org_apache_geronimo_specs_geronimo_servlet_3_0_spec -->
<g id="edge16" class="edge"><title>org_ops4j_pax_web_pax_web_api&#45;&gt;org_apache_geronimo_specs_geronimo_servlet_3_0_spec</title>
<path fill="none" stroke="#3182bd" d="M751.049,-259.441C758.216,-268.337 767.059,-279.315 774.93,-289.086"/>
<polygon fill="#3182bd" stroke="#3182bd" points="772.256,-291.345 781.255,-296.937 777.707,-286.954 772.256,-291.345"/>
</g>
<!-- org_ops4j_pax_web_pax_web_api&#45;&gt;org_ops4j_pax_logging_pax_logging_api -->
<g id="edge15" class="edge"><title>org_ops4j_pax_web_pax_web_api&#45;&gt;org_ops4j_pax_logging_pax_logging_api</title>
<path fill="none" stroke="#3182bd" d="M802.89,-259.065C843.856,-269.675 896.664,-283.352 939.34,-294.405"/>
<polygon fill="#3182bd" stroke="#3182bd" points="938.56,-297.818 949.118,-296.937 940.315,-291.042 938.56,-297.818"/>
</g>
<!-- org_ops4j_pax_web_pax_web_api&#45;&gt;org_ops4j_pax_web_pax_web_runtime -->
<g id="edge17" class="edge"><title>org_ops4j_pax_web_pax_web_api&#45;&gt;org_ops4j_pax_web_pax_web_runtime</title>
<path fill="none" stroke="#3182bd" d="M729.264,-222.937C727.498,-214.807 726.145,-204.876 725.49,-195.705"/>
<polygon fill="#3182bd" stroke="#3182bd" points="728.976,-195.285 725.058,-185.441 721.982,-195.579 728.976,-195.285"/>
</g>
<!-- org_ops4j_pax_web_pax_web_runtime&#45;&gt;org_apache_geronimo_specs_geronimo_servlet_3_0_spec -->
<g id="edge21" class="edge"><title>org_ops4j_pax_web_pax_web_runtime&#45;&gt;org_apache_geronimo_specs_geronimo_servlet_3_0_spec</title>
<path fill="none" stroke="#9ecae1" d="M686.292,-185.153C670.709,-193.745 654.77,-205.831 646,-222 637.948,-236.846 636.303,-246.172 646,-260 656.036,-274.312 670.268,-284.846 685.994,-292.596"/>
<polygon fill="#9ecae1" stroke="#9ecae1" points="684.851,-295.921 695.406,-296.845 687.731,-289.541 684.851,-295.921"/>
</g>
<!-- org_ops4j_pax_web_pax_web_runtime&#45;&gt;org_ops4j_pax_logging_pax_logging_api -->
<g id="edge26" class="edge"><title>org_ops4j_pax_web_pax_web_runtime&#45;&gt;org_ops4j_pax_logging_pax_logging_api</title>
<path fill="none" stroke="#9ecae1" d="M762.5,-185.139C798.642,-203.626 857.889,-233.919 909,-260 929.869,-270.649 953.056,-282.463 972.41,-292.319"/>
<polygon fill="#9ecae1" stroke="#9ecae1" points="971.076,-295.568 981.576,-296.987 974.253,-289.33 971.076,-295.568"/>
</g>
<!-- org_ops4j_pax_web_pax_web_runtime&#45;&gt;org_ops4j_pax_web_pax_web_jsp -->
<g id="edge27" class="edge"><title>org_ops4j_pax_web_pax_web_runtime&#45;&gt;org_ops4j_pax_web_pax_web_jsp</title>
<path fill="none" stroke="#9ecae1" d="M697.543,-185.056C680.331,-194.175 659.571,-206.697 644,-222 624.636,-241.03 609.48,-268.25 598.359,-288.144"/>
<polygon fill="#9ecae1" stroke="#9ecae1" points="595.238,-286.553 593.378,-296.983 601.337,-289.99 595.238,-286.553"/>
</g>
<!-- org_ops4j_pax_web_pax_web_runtime&#45;&gt;org_ops4j_pax_web_pax_web_api -->
<g id="edge24" class="edge"><title>org_ops4j_pax_web_pax_web_runtime&#45;&gt;org_ops4j_pax_web_pax_web_api</title>
<path fill="none" stroke="#9ecae1" d="M736.817,-185.441C738.57,-193.625 739.906,-203.572 740.54,-212.719"/>
<polygon fill="#9ecae1" stroke="#9ecae1" points="737.051,-213.083 740.944,-222.937 744.046,-212.806 737.051,-213.083"/>
</g>
<!-- org_ops4j_pax_web_pax_web_runtime&#45;&gt;org_apache_felix_eventadmin -->
<g id="edge23" class="edge"><title>org_ops4j_pax_web_pax_web_runtime&#45;&gt;org_apache_felix_eventadmin</title>
<path fill="none" stroke="#9ecae1" d="M805.783,-148.937C856.133,-137.748 921.837,-123.147 972.851,-111.811"/>
<polygon fill="#9ecae1" stroke="#9ecae1" points="973.847,-115.175 982.85,-109.589 972.328,-108.342 973.847,-115.175"/>
</g>
<!-- org_apache_felix_configadmin -->
<g id="node13" class="node"><title>org_apache_felix_configadmin</title>
<polygon fill="#deebf7" stroke="black" points="872,-1 872,-37 1038,-37 1038,-1 872,-1"/>
<text text-anchor="middle" x="955" y="-26.1" font-family="Arial" font-size="8.00">Apache Felix Configuration Admin Service</text>
<polyline fill="none" stroke="black" points="872,-19 1038,-19 "/>
<text text-anchor="middle" x="955" y="-8.1" font-family="Arial" font-size="8.00">org.apache.felix.configadmin(1.6.0)</text>
</g>
<!-- org_ops4j_pax_web_pax_web_runtime&#45;&gt;org_apache_felix_configadmin -->
<g id="edge22" class="edge"><title>org_ops4j_pax_web_pax_web_runtime&#45;&gt;org_apache_felix_configadmin</title>
<path fill="none" stroke="#9ecae1" d="M729.019,-148.906C729.994,-128.298 734.814,-93.9514 755,-74 783.178,-46.1502 824.137,-32.2693 861.661,-25.4924"/>
<polygon fill="#9ecae1" stroke="#9ecae1" points="862.334,-28.9288 871.627,-23.8409 861.189,-22.023 862.334,-28.9288"/>
</g>
<!-- org_ops4j_pax_web_pax_web_spi -->
<g id="node15" class="node"><title>org_ops4j_pax_web_pax_web_spi</title>
<polygon fill="#deebf7" stroke="black" points="763.5,-75 763.5,-111 926.5,-111 926.5,-75 763.5,-75"/>
<text text-anchor="middle" x="845" y="-100.1" font-family="Arial" font-size="8.00">OPS4J Pax Web &#45; Service SPI</text>
<polyline fill="none" stroke="black" points="763.5,-93 926.5,-93 "/>
<text text-anchor="middle" x="845" y="-82.1" font-family="Arial" font-size="8.00">org.ops4j.pax.web.pax&#45;web&#45;spi(3.0.0.M3)</text>
</g>
<!-- org_ops4j_pax_web_pax_web_runtime&#45;&gt;org_ops4j_pax_web_pax_web_spi -->
<g id="edge25" class="edge"><title>org_ops4j_pax_web_pax_web_runtime&#45;&gt;org_ops4j_pax_web_pax_web_spi</title>
<path fill="none" stroke="#9ecae1" d="M750.65,-148.937C765.253,-139.234 784.863,-126.966 802.466,-116.485"/>
<polygon fill="#9ecae1" stroke="#9ecae1" points="804.613,-119.282 811.452,-111.19 801.059,-113.252 804.613,-119.282"/>
</g>
<!-- org_apache_felix_eventadmin&#45;&gt;org_ops4j_pax_logging_pax_logging_api -->
<g id="edge18" class="edge"><title>org_apache_felix_eventadmin&#45;&gt;org_ops4j_pax_logging_pax_logging_api</title>
<path fill="none" stroke="#9ecae1" d="M1053.87,-111.183C1050.89,-149.261 1035.31,-240.995 1024.31,-286.893"/>
<polygon fill="#9ecae1" stroke="#9ecae1" points="1020.87,-286.185 1021.82,-296.737 1027.66,-287.895 1020.87,-286.185"/>
</g>
<!-- org_apache_felix_eventadmin&#45;&gt;org_apache_felix_configadmin -->
<g id="edge19" class="edge"><title>org_apache_felix_eventadmin&#45;&gt;org_apache_felix_configadmin</title>
<path fill="none" stroke="#9ecae1" d="M1029.78,-74.937C1016.93,-65.5012 1000.79,-53.6389 986.788,-43.3541"/>
<polygon fill="#9ecae1" stroke="#9ecae1" points="988.529,-40.2902 978.398,-37.19 984.384,-45.9314 988.529,-40.2902"/>
</g>
<!-- org_apache_felix_metatype -->
<g id="node14" class="node"><title>org_apache_felix_metatype</title>
<polygon fill="#deebf7" stroke="black" points="1070.5,-1 1070.5,-37 1201.5,-37 1201.5,-1 1070.5,-1"/>
<text text-anchor="middle" x="1136" y="-26.1" font-family="Arial" font-size="8.00">Apache Felix Metatype Service</text>
<polyline fill="none" stroke="black" points="1070.5,-19 1201.5,-19 "/>
<text text-anchor="middle" x="1136" y="-8.1" font-family="Arial" font-size="8.00">org.apache.felix.metatype(1.0.6)</text>
</g>
<!-- org_apache_felix_eventadmin&#45;&gt;org_apache_felix_metatype -->
<g id="edge20" class="edge"><title>org_apache_felix_eventadmin&#45;&gt;org_apache_felix_metatype</title>
<path fill="none" stroke="#9ecae1" d="M1072.67,-74.937C1083.34,-65.6792 1096.71,-54.0857 1108.4,-43.9379"/>
<polygon fill="#9ecae1" stroke="#9ecae1" points="1110.92,-46.3867 1116.18,-37.19 1106.34,-41.099 1110.92,-46.3867"/>
</g>
<!-- org_apache_felix_configadmin&#45;&gt;org_ops4j_pax_logging_pax_logging_api -->
<g id="edge28" class="edge"><title>org_apache_felix_configadmin&#45;&gt;org_ops4j_pax_logging_pax_logging_api</title>
<path fill="none" stroke="#deebf7" d="M958.495,-37.1246C968.49,-86.1012 997.257,-227.058 1009.44,-286.761"/>
<polygon fill="#deebf7" stroke="#deebf7" points="1006.09,-287.824 1011.51,-296.923 1012.94,-286.425 1006.09,-287.824"/>
</g>
<!-- org_apache_felix_metatype&#45;&gt;org_ops4j_pax_logging_pax_logging_api -->
<g id="edge29" class="edge"><title>org_apache_felix_metatype&#45;&gt;org_ops4j_pax_logging_pax_logging_api</title>
<path fill="none" stroke="#deebf7" d="M1137.58,-37.3277C1138.75,-56.1047 1139.11,-86.7639 1132,-112 1112.36,-181.698 1063.14,-252.506 1035.2,-288.922"/>
<polygon fill="#deebf7" stroke="#deebf7" points="1032.29,-286.957 1028.91,-296.999 1037.82,-291.255 1032.29,-286.957"/>
</g>
<!-- org_ops4j_pax_web_pax_web_spi&#45;&gt;org_apache_geronimo_specs_geronimo_servlet_3_0_spec -->
<g id="edge31" class="edge"><title>org_ops4j_pax_web_pax_web_spi&#45;&gt;org_apache_geronimo_specs_geronimo_servlet_3_0_spec</title>
<path fill="none" stroke="#deebf7" d="M846.583,-111.007C847.492,-121.63 848.541,-135.6 849,-148 850.872,-198.611 848.305,-213.603 828,-260 823.815,-269.562 818.192,-279.464 812.774,-288.136"/>
<polygon fill="#deebf7" stroke="#deebf7" points="809.753,-286.363 807.271,-296.663 815.634,-290.158 809.753,-286.363"/>
</g>
<!-- org_ops4j_pax_web_pax_web_spi&#45;&gt;org_ops4j_pax_logging_pax_logging_api -->
<g id="edge30" class="edge"><title>org_ops4j_pax_web_pax_web_spi&#45;&gt;org_ops4j_pax_logging_pax_logging_api</title>
<path fill="none" stroke="#deebf7" d="M852.979,-111.072C868.27,-142.686 904.03,-211.529 947,-260 956.979,-271.256 969.509,-281.941 981.086,-290.791"/>
<polygon fill="#deebf7" stroke="#deebf7" points="979.183,-293.737 989.298,-296.892 983.358,-288.118 979.183,-293.737"/>
</g>
<!-- org_ops4j_pax_web_pax_web_spi&#45;&gt;org_ops4j_pax_web_pax_web_api -->
<g id="edge32" class="edge"><title>org_ops4j_pax_web_pax_web_spi&#45;&gt;org_ops4j_pax_web_pax_web_api</title>
<path fill="none" stroke="#deebf7" d="M845.888,-111.205C846.053,-130.991 843.609,-163.618 828,-186 818.776,-199.226 805.18,-209.731 791.294,-217.825"/>
<polygon fill="#deebf7" stroke="#deebf7" points="789.273,-214.94 782.169,-222.801 792.625,-221.086 789.273,-214.94"/>
</g>
<!-- org_ops4j_pax_web_pax_web_spi&#45;&gt;org_ops4j_pax_web_pax_web_runtime -->
<g id="edge33" class="edge"><title>org_ops4j_pax_web_pax_web_spi&#45;&gt;org_ops4j_pax_web_pax_web_runtime</title>
<path fill="none" stroke="#deebf7" d="M823.158,-111.19C808.512,-120.915 788.889,-133.187 771.303,-143.652"/>
<polygon fill="#deebf7" stroke="#deebf7" points="769.171,-140.846 762.33,-148.937 772.723,-146.878 769.171,-140.846"/>
</g>
</g>
</svg>
